HIERARCHY
ROOT Hips
{
	OFFSET 0.000000 0.000000 0.000000
	CHANNELS 6 Xposition Yposition Zposition Xrotation Yrotation Zrotation
	JOINT Chest
	{
		OFFSET 0.000000 0.009282 11.569106
		CHANNELS 3 Xrotation Yrotation Zrotation
		JOINT Chest2
		{
			OFFSET 0.000000 -0.016863 9.269641
			CHANNELS 3 Xrotation Yrotation Zrotation
			JOINT Chest3
			{
				OFFSET 0.000000 0.000000 8.374491
				CHANNELS 3 Xrotation Yrotation Zrotation
				JOINT Chest4
				{
					OFFSET 0.000000 0.000000 8.374493
					CHANNELS 3 Xrotation Yrotation Zrotation
					JOINT Neck
					{
						OFFSET 0.000000 -0.000001 12.152554
						CHANNELS 3 Xrotation Yrotation Zrotation
						JOINT Head
						{
							OFFSET 0.000000 -0.040100 7.802319
							CHANNELS 3 Xrotation Yrotation Zrotation
							End Site
							{
								OFFSET 0.000000 -0.020946 14.853096
							}
						}
					}
					JOINT RightCollar
					{
						OFFSET -2.894404 0.000000 6.791374
						CHANNELS 3 Xrotation Yrotation Zrotation
						JOINT RightShoulder
						{
							OFFSET -13.574684 0.000000 0.000000
							CHANNELS 3 Xrotation Yrotation Zrotation
							JOINT RightElbow
							{
								OFFSET -23.923903 0.000000 0.000000
								CHANNELS 3 Xrotation Yrotation Zrotation
								JOINT RightWrist
								{
									OFFSET -19.846718 -0.012765 0.000000
									CHANNELS 3 Xrotation Yrotation Zrotation
									End Site
									{
										OFFSET -14.973145 0.000000 0.000000
									}
								}
							}
						}
					}
					JOINT LeftCollar
					{
						OFFSET 2.894404 0.000000 6.791374
						CHANNELS 3 Xrotation Yrotation Zrotation
						JOINT LeftShoulder
						{
							OFFSET 13.574684 0.000000 0.000000
							CHANNELS 3 Xrotation Yrotation Zrotation
							JOINT LeftElbow
							{
								OFFSET 23.923903 0.000000 0.000000
								CHANNELS 3 Xrotation Yrotation Zrotation
								JOINT LeftWrist
								{
									OFFSET 19.846718 -0.012765 0.000000
									CHANNELS 3 Xrotation Yrotation Zrotation
									End Site
									{
										OFFSET 14.973145 0.000000 0.000000
									}
								}
							}
						}
					}
				}
			}
		}
	}
	JOINT RightHip
	{
		OFFSET -9.469263 -0.004642 0.045487
		CHANNELS 3 Xrotation Yrotation Zrotation
		JOINT RightKnee
		{
			OFFSET 0.000000 -0.002666 -40.478676
			CHANNELS 3 Xrotation Yrotation Zrotation
			JOINT RightAnkle
			{
				OFFSET 0.000000 -0.049110 -35.224068
				CHANNELS 3 Xrotation Yrotation Zrotation
				JOINT RightToe
				{
					OFFSET 0.000000 -12.539530 -6.151390
					CHANNELS 3 Xrotation Yrotation Zrotation
					End Site
					{
						OFFSET 0.000000 -5.044995 -1.291870
					}
				}
			}
		}
	}
	JOINT LeftHip
	{
		OFFSET 9.469263 -0.004642 0.045487
		CHANNELS 3 Xrotation Yrotation Zrotation
		JOINT LeftKnee
		{
			OFFSET 0.000000 -0.002666 -40.478676
			CHANNELS 3 Xrotation Yrotation Zrotation
			JOINT LeftAnkle
			{
				OFFSET 0.000000 -0.049110 -35.224068
				CHANNELS 3 Xrotation Yrotation Zrotation
				JOINT LeftToe
				{
					OFFSET 0.000000 -12.539530 -6.151390
					CHANNELS 3 Xrotation Yrotation Zrotation
					End Site
					{
						OFFSET 0.000000 -5.044995 -1.291870
					}
				}
			}
		}
	}
}
MOTION
Frames: 12
Frame Time: 0.016667
-12.510995 -4.940417 83.012146 4.413379 6.535943 -114.019292 3.321386 1.759605 2.814202 1.484078 0.789860 1.309459 1.484078 0.789860 1.309462 1.114740 0.589224 0.984009 11.958259 -5.016323 -16.050034 -13.376060 -2.560781 -31.097810 -4.655643 0.927114 -9.331573 -33.561463 -40.607408 38.721657 -1.637306 5.093528 26.189814 17.332163 -7.052959 -11.857549 6.262416 5.297296 -21.026394 22.239786 54.902877 -83.955476 18.977976 3.336454 -61.151510 38.613406 21.051456 10.955173 10.050663 -0.822872 -2.626631 4.747919 -0.627948 1.108412 -6.377723 -0.838551 2.869258 0.089406 0.271200 -0.036239 12.703356 -1.504996 0.763164 1.117322 0.057516 1.143956 -6.149587 0.660091 3.664951 -0.122339 -0.071083 0.023943 
-12.535307 -4.898094 83.011688 4.305864 6.349319 -114.127851 3.337627 1.768939 2.714703 1.490640 0.798036 1.267136 1.490641 0.798036 1.267139 1.119622 0.595445 0.952288 11.636495 -4.844137 -16.108871 -13.914221 -2.157574 -31.138197 -4.956139 1.168274 -9.388309 -34.532965 -40.697949 39.272010 -2.492105 5.479580 27.685929 17.703919 -4.290435 -11.100173 6.405357 5.048421 -21.130514 21.400518 54.770782 -84.647491 17.655409 2.815354 -63.304734 38.545288 19.832062 11.147214 9.910260 -0.793494 -2.565296 4.631629 -0.633165 1.138458 -6.337323 -0.879151 2.891623 0.099817 0.265352 -0.040608 12.575450 -1.491318 0.832838 1.026897 0.072282 1.184976 -6.110891 0.710310 3.649619 -0.136796 -0.082000 0.026874 
-12.555838 -4.860741 83.010925 4.190820 6.150470 -114.229245 3.340363 1.758036 2.600867 1.490912 0.795933 1.217519 1.490912 0.795933 1.217519 1.119757 0.593988 0.915072 11.325300 -4.650200 -16.144954 -14.431428 -1.726602 -31.127078 -5.112116 1.393556 -9.375412 -35.680908 -40.824273 39.708954 -2.897164 5.993421 29.121218 18.041728 -1.323792 -10.191420 6.579093 4.835659 -21.222074 20.628718 54.673001 -85.376620 16.301799 2.254007 -65.347548 38.594807 18.477525 11.225891 9.751050 -0.764924 -2.485332 4.516037 -0.637088 1.148426 -6.293001 -0.919486 2.908336 0.108949 0.259556 -0.045916 12.418036 -1.472922 0.941723 0.956286 0.083008 1.178724 -6.077462 0.759247 3.654622 -0.148210 -0.091719 0.031244 
-12.573864 -4.827151 83.011528 4.075703 5.959401 -114.324492 3.354038 1.739216 2.473598 1.496301 0.790071 1.161461 1.496301 0.790070 1.161464 1.123714 0.589715 0.873024 11.020965 -4.454932 -16.153833 -14.940334 -1.305381 -31.064892 -5.331534 1.588130 -9.298982 -36.532879 -40.866118 40.207234 -3.332994 6.632207 30.531608 18.325596 1.633701 -9.182917 6.691979 4.668160 -21.267472 19.971323 54.630715 -86.164776 14.992670 1.731153 -67.264495 38.654721 16.971738 11.296202 9.591201 -0.734522 -2.394051 4.411780 -0.634629 1.125479 -6.245837 -0.966623 2.946368 0.111644 0.253748 -0.050839 12.258304 -1.455951 1.059823 0.897595 0.098096 1.153668 -6.039666 0.808785 3.654843 -0.163509 -0.101872 0.035767 
-12.588996 -4.797243 83.013153 3.963457 5.779403 -114.422601 3.374513 1.703188 2.343448 1.505091 0.776374 1.103332 1.505091 0.776375 1.103326 1.130207 0.579571 0.829404 10.725467 -4.254505 -16.145592 -15.435136 -0.883891 -30.968289 -5.502000 1.782355 -9.179997 -37.202282 -40.908206 40.806784 -3.944371 7.258037 31.862088 18.475901 4.629626 -8.193361 6.772026 4.560144 -21.282036 19.365289 54.689256 -86.955787 13.809754 1.304793 -69.088600 38.807475 15.269165 11.339574 9.427155 -0.696351 -2.298676 4.331223 -0.647284 1.088968 -6.203162 -1.006896 2.967723 0.111509 0.250808 -0.054941 12.104721 -1.435433 1.166483 0.842921 0.112762 1.131878 -5.996435 0.858294 3.649026 -0.179667 -0.111919 0.039887 
-12.598057 -4.768827 83.014442 3.848836 5.607911 -114.528086 3.414014 1.681377 2.240694 1.522669 0.768717 1.056055 1.522670 0.768718 1.056060 1.143318 0.573913 0.793953 10.436832 -4.077589 -16.138313 -15.923215 -0.505755 -30.881929 -5.714827 1.920905 -9.087395 -37.703973 -40.948767 41.433707 -4.661690 7.783450 33.132408 18.369328 7.824881 -7.199579 6.823178 4.392909 -21.328224 18.743689 54.865803 -87.655123 12.733780 0.995912 -70.866013 39.134371 13.260885 11.281181 9.250857 -0.644417 -2.199828 4.282509 -0.665760 1.061300 -6.173617 -1.045797 3.026403 0.112517 0.247833 -0.057452 11.951198 -1.406949 1.259687 0.793089 0.123302 1.133959 -5.947713 0.910611 3.648777 -0.195229 -0.119702 0.043003 
-12.604467 -4.748899 83.014496 3.725299 5.444933 -114.632486 3.470633 1.649754 2.120352 1.547258 0.756502 1.001073 1.547259 0.756500 1.001074 1.161670 0.564846 0.752716 10.157593 -3.902552 -16.109606 -16.398635 -0.141907 -30.756533 -5.896463 2.079189 -8.949418 -38.307898 -41.067448 41.982584 -5.238226 8.213507 34.283650 17.919358 11.273698 -6.079766 6.907207 4.205645 -21.313399 18.210551 55.086886 -88.419224 11.677532 0.730701 -72.531302 39.665538 10.751665 11.003413 9.065100 -0.585200 -2.089148 4.251170 -0.674380 1.043220 -6.155169 -1.090428 3.055867 0.119309 0.246732 -0.061471 11.789659 -1.357956 1.324871 0.759268 0.121846 1.164158 -5.899205 0.962349 3.639221 -0.210302 -0.123384 0.044924 
-12.606882 -4.733481 83.013977 3.599805 5.289962 -114.736769 3.502189 1.608306 2.016192 1.560612 0.740068 0.953611 1.560612 0.740068 0.953612 1.171601 0.552623 0.717096 9.928222 -3.736245 -16.083128 -16.785128 0.195562 -30.637961 -5.907591 2.206411 -8.763764 -39.083695 -41.219836 42.396190 -5.571106 8.663961 35.305528 17.094913 14.911701 -4.721685 7.065663 4.026650 -21.303541 17.794012 55.248898 -89.203787 10.595923 0.433763 -74.031293 40.223749 7.619418 10.504857 8.883378 -0.520382 -1.985391 4.217720 -0.678948 1.052701 -6.136665 -1.138415 3.050830 0.129099 0.246477 -0.062989 11.615639 -1.297030 1.359393 0.753611 0.112091 1.209547 -5.856471 1.007923 3.653099 -0.224573 -0.121746 0.045830 
-12.608355 -4.721214 83.014191 3.471880 5.147023 -114.829577 3.545257 1.562159 1.917066 1.578688 0.720988 0.909526 1.578688 0.720988 0.909530 1.185076 0.538397 0.684006 9.732439 -3.588246 -16.054529 -17.115160 0.491705 -30.522756 -5.874667 2.328204 -8.591108 -39.888428 -41.433348 42.765536 -5.708203 9.151727 36.191909 15.996144 18.702709 -3.044458 7.159741 3.901285 -21.303311 17.461023 55.345457 -89.930048 9.542755 0.063663 -75.334651 40.570009 3.889946 9.889760 8.710409 -0.449599 -1.939886 4.186677 -0.683593 1.081833 -6.122157 -1.187889 3.058115 0.140672 0.246964 -0.064374 11.442846 -1.232919 1.390982 0.759166 0.104503 1.237417 -5.808351 1.045434 3.659010 -0.241944 -0.115473 0.046892 
-12.611535 -4.709938 83.015678 3.347760 5.022394 -114.903699 3.594849 1.517579 1.823411 1.599620 0.702076 0.867699 1.599621 0.702076 0.867696 1.200701 0.524291 0.652603 9.585466 -3.469716 -16.022753 -17.363362 0.722892 -30.414102 -5.913164 2.445870 -8.436805 -40.432172 -41.646300 43.154139 -5.791603 9.720198 36.997622 14.697211 22.585310 -0.977747 7.262449 3.784093 -21.313467 17.187911 55.432022 -90.671485 8.634573 -0.371311 -76.370121 40.611840 -0.541544 9.180215 8.573812 -0.361294 -1.956989 4.124587 -0.716120 1.159635 -6.094062 -1.225391 3.057738 0.150439 0.248931 -0.065838 11.283457 -1.157355 1.428359 0.766304 0.079925 1.230175 -5.751358 1.082509 3.692124 -0.260960 -0.106679 0.048146 
-12.617662 -4.703060 83.018562 3.234762 4.914395 -114.966236 3.649055 1.467802 1.734807 1.623118 0.679237 0.828252 1.623119 0.679237 0.828254 1.218248 0.507233 0.622994 9.495111 -3.375300 -15.986850 -17.514285 0.896622 -30.308456 -5.986924 2.566522 -8.272253 -40.696176 -41.804822 43.563363 -5.903801 10.334668 37.734763 13.093897 26.542921 1.517548 7.314117 3.696949 -21.308235 17.010163 55.537050 -91.374558 7.874601 -0.746920 -77.122849 40.449241 -5.851996 8.198927 8.462660 -0.272469 -2.003961 4.053572 -0.749466 1.303365 -6.058076 -1.263094 3.024966 0.153505 0.252109 -0.070048 11.145640 -1.086566 1.488480 0.769284 0.053983 1.184793 -5.686848 1.111171 3.704741 -0.280557 -0.093318 0.050231 
-12.621230 -4.696337 83.023178 3.140427 4.821933 -115.027352 3.714575 1.399089 1.628938 1.652321 0.648261 0.780020 1.652321 0.648261 0.780023 1.240057 0.484092 0.586768 9.450432 -3.291003 -15.928054 -17.587998 1.032745 -30.166169 -6.162199 2.724115 -7.992002 -40.712514 -41.886934 43.922436 -6.086866 10.909489 38.417669 11.131935 30.514860 4.551129 7.337082 3.658001 -21.246893 16.852788 55.650961 -91.977274 7.225939 -1.078455 -77.589207 39.927742 -12.013621 6.796506 8.369231 -0.189502 -2.023508 3.985503 -0.798067 1.460290 -6.009591 -1.286578 2.952019 0.145055 0.253772 -0.070598 11.026929 -1.029016 1.558402 0.771774 0.035071 1.115145 -5.614380 1.125085 3.718492 -0.299828 -0.075857 0.051801 
